<svg width="18" height="18" viewBox="0 0 18 18" fill="none" xmlns="http://www.w3.org/2000/svg">
<rect x="1.125" y="1.125" width="15.75" height="15.75" rx="6" fill="url(#paint0_radial_126_1245)"/>
<rect x="1.125" y="1.125" width="15.75" height="15.75" rx="6" fill="url(#paint1_radial_126_1245)"/>
<rect x="1.125" y="1.125" width="15.75" height="15.75" rx="6" fill="url(#paint2_radial_126_1245)"/>
<path d="M12.9375 5.90625C12.9375 6.37224 12.5597 6.75 12.0938 6.75C11.6278 6.75 11.25 6.37224 11.25 5.90625C11.25 5.44026 11.6278 5.0625 12.0938 5.0625C12.5597 5.0625 12.9375 5.44026 12.9375 5.90625Z" fill="white"/>
<path fill-rule="evenodd" clip-rule="evenodd" d="M9 11.8125C10.5533 11.8125 11.8125 10.5533 11.8125 9C11.8125 7.4467 10.5533 6.1875 9 6.1875C7.4467 6.1875 6.1875 7.4467 6.1875 9C6.1875 10.5533 7.4467 11.8125 9 11.8125ZM9 10.6875C9.93198 10.6875 10.6875 9.93198 10.6875 9C10.6875 8.06802 9.93198 7.3125 9 7.3125C8.06802 7.3125 7.3125 8.06802 7.3125 9C7.3125 9.93198 8.06802 10.6875 9 10.6875Z" fill="white"/>
<path fill-rule="evenodd" clip-rule="evenodd" d="M3.375 8.775C3.375 6.88482 3.375 5.93973 3.74285 5.21778C4.06643 4.58274 4.58274 4.06643 5.21778 3.74285C5.93973 3.375 6.88482 3.375 8.775 3.375H9.225C11.1152 3.375 12.0603 3.375 12.7822 3.74285C13.4173 4.06643 13.9336 4.58274 14.2571 5.21778C14.625 5.93973 14.625 6.88482 14.625 8.775V9.225C14.625 11.1152 14.625 12.0603 14.2571 12.7822C13.9336 13.4173 13.4173 13.9336 12.7822 14.2571C12.0603 14.625 11.1152 14.625 9.225 14.625H8.775C6.88482 14.625 5.93973 14.625 5.21778 14.2571C4.58274 13.9336 4.06643 13.4173 3.74285 12.7822C3.375 12.0603 3.375 11.1152 3.375 9.225V8.775ZM8.775 4.5H9.225C10.1887 4.5 10.8437 4.50087 11.3501 4.54225C11.8433 4.58254 12.0955 4.65558 12.2715 4.74524C12.6948 4.96095 13.039 5.30516 13.2548 5.72852C13.3444 5.90447 13.4175 6.1567 13.4578 6.64992C13.4991 7.15627 13.5 7.81135 13.5 8.775V9.225C13.5 10.1887 13.4991 10.8437 13.4578 11.3501C13.4175 11.8433 13.3444 12.0955 13.2548 12.2715C13.039 12.6948 12.6948 13.039 12.2715 13.2548C12.0955 13.3444 11.8433 13.4175 11.3501 13.4578C10.8437 13.4991 10.1887 13.5 9.225 13.5H8.775C7.81135 13.5 7.15627 13.4991 6.64992 13.4578C6.1567 13.4175 5.90447 13.3444 5.72852 13.2548C5.30516 13.039 4.96095 12.6948 4.74524 12.2715C4.65558 12.0955 4.58254 11.8433 4.54225 11.3501C4.50087 10.8437 4.5 10.1887 4.5 9.225V8.775C4.5 7.81135 4.50087 7.15627 4.54225 6.64992C4.58254 6.1567 4.65558 5.90447 4.74524 5.72852C4.96095 5.30516 5.30516 4.96095 5.72852 4.74524C5.90447 4.65558 6.1567 4.58254 6.64992 4.54225C7.15627 4.50087 7.81135 4.5 8.775 4.5Z" fill="white"/>
<defs>
<radialGradient id="paint0_radial_126_1245" cx="0" cy="0" r="1" gradientUnits="userSpaceOnUse" gradientTransform="translate(6.75 12.9375) rotate(-55.3758) scale(14.3548)">
<stop stop-color="#B13589"/>
<stop offset="0.79309" stop-color="#C62F94"/>
<stop offset="1" stop-color="#8A3AC8"/>
</radialGradient>
<radialGradient id="paint1_radial_126_1245" cx="0" cy="0" r="1" gradientUnits="userSpaceOnUse" gradientTransform="translate(6.1875 17.4375) rotate(-65.1363) scale(12.7093)">
<stop stop-color="#E0E8B7"/>
<stop offset="0.444662" stop-color="#FB8A2E"/>
<stop offset="0.71474" stop-color="#E2425C"/>
<stop offset="1" stop-color="#E2425C" stop-opacity="0"/>
</radialGradient>
<radialGradient id="paint2_radial_126_1245" cx="0" cy="0" r="1" gradientUnits="userSpaceOnUse" gradientTransform="translate(0.281251 1.6875) rotate(-8.1301) scale(21.8761 4.67908)">
<stop offset="0.156701" stop-color="#406ADC"/>
<stop offset="0.467799" stop-color="#6A45BE"/>
<stop offset="1" stop-color="#6A45BE" stop-opacity="0"/>
</radialGradient>
</defs>
</svg>
