<svg width="28" height="28" viewBox="0 0 28 28" fill="none" xmlns="http://www.w3.org/2000/svg">
<g clip-path="url(#clip0_124_903)" filter="url(#filter0_d_124_903)">
<path d="M22.75 20H4V18.75H5.25V9.375C5.25 8.3125 6.0625 7.5 7.125 7.5H14.625C15.6875 7.5 16.5 8.3125 16.5 9.375V18.75H17.125V8.75C17.125 7.6875 16.3125 6.875 15.25 6.875H11.5V1.875C11.5 0.8125 12.3125 0 13.375 0H20.875C21.9375 0 22.75 0.8125 22.75 1.875V18.75H24V20H22.75ZM10.25 10H7.75V11.25H10.25V10ZM10.25 12.5H7.75V13.75H10.25V12.5ZM10.25 15H7.75V16.25H10.25V15ZM14 10H11.5V11.25H14V10ZM14 12.5H11.5V13.75H14V12.5ZM14 15H11.5V16.25H14V15ZM16.5 2.5H14V3.75H16.5V2.5ZM16.5 5H14V6.25H16.5V5ZM20.25 2.5H17.75V3.75H20.25V2.5ZM20.25 5H17.75V6.25H20.25V5Z" fill="#0373F3"/>
</g>
<defs>
<filter id="filter0_d_124_903" x="0" y="0" width="28" height="28" filterUnits="userSpaceOnUse" color-interpolation-filters="sRGB">
<feFlood flood-opacity="0" result="BackgroundImageFix"/>
<feColorMatrix in="SourceAlpha" type="matrix" values="0 0 0 0 0 0 0 0 0 0 0 0 0 0 0 0 0 0 127 0" result="hardAlpha"/>
<feOffset dy="4"/>
<feGaussianBlur stdDeviation="2"/>
<feComposite in2="hardAlpha" operator="out"/>
<feColorMatrix type="matrix" values="0 0 0 0 0 0 0 0 0 0 0 0 0 0 0 0 0 0 0.25 0"/>
<feBlend mode="normal" in2="BackgroundImageFix" result="effect1_dropShadow_124_903"/>
<feBlend mode="normal" in="SourceGraphic" in2="effect1_dropShadow_124_903" result="shape"/>
</filter>
<clipPath id="clip0_124_903">
<rect width="20" height="20" fill="white" transform="translate(4)"/>
</clipPath>
</defs>
</svg>
