<svg width="24" height="24" viewBox="0 0 24 24" fill="none" xmlns="http://www.w3.org/2000/svg">
<path d="M11.9582 21.3931C10.6379 21.4441 9.32672 21.1546 8.1507 20.5523C6.97467 19.95 5.97342 19.0553 5.24324 17.9541C2.37524 13.1221 5.24324 8.57807 6.18724 7.30007L6.27824 7.17807C6.69125 6.75048 6.98053 6.21884 7.11525 5.63982C7.24996 5.0608 7.22508 4.45607 7.04324 3.89007C6.98212 3.68836 6.9863 3.47249 7.05518 3.2733C7.12406 3.0741 7.25411 2.90177 7.42678 2.78089C7.59944 2.66002 7.80588 2.59679 8.01662 2.60023C8.22736 2.60368 8.43162 2.67362 8.60024 2.80007C8.73324 2.90007 8.91324 3.01207 9.12524 3.14707C10.636 3.95348 11.9254 5.11876 12.88 6.54042C13.8347 7.96208 14.4255 9.59655 14.6002 11.3001C15.0996 10.2397 15.3721 9.08679 15.4002 7.91507C15.4088 7.73429 15.4662 7.55922 15.5664 7.40851C15.6666 7.2578 15.8058 7.13711 15.9692 7.05931C16.1326 6.98151 16.3141 6.94951 16.4943 6.96673C16.6744 6.98394 16.8465 7.04973 16.9922 7.15707C18.6282 8.36207 21.6302 13.2381 19.0112 17.5981C18.2598 18.7824 17.2164 19.7536 15.9812 20.4182C14.746 21.0828 13.3606 21.4185 11.9582 21.3931Z" fill="#0373F3"/>
</svg>
