<svg width="24" height="25" viewBox="0 0 24 25" fill="none" xmlns="http://www.w3.org/2000/svg">
<g clip-path="url(#clip0_106_608)">
<path d="M2.26891 19.4949C5.63751 21.1984 7.29732 14.9335 10.9724 15.3335C15.4763 15.8236 15.8321 22.8933 20.2033 21.5758C24.8127 20.1865 24.1552 15.3282 23.632 9.98315C23.2313 5.89076 22.1543 3.92128 18.7256 1.84054C13.0703 -1.59152 6.88762 -0.201029 3.32387 5.82158C0.68521 10.2808 -2.07009 17.3007 2.26891 19.4949Z" fill="#F4CA16" fill-opacity="0.5"/>
<path d="M15.5294 23.9132C16.3091 23.9132 16.9412 23.1832 16.9412 22.2828C16.9412 21.3823 16.3091 20.6523 15.5294 20.6523C14.7497 20.6523 14.1177 21.3823 14.1177 22.2828C14.1177 23.1832 14.7497 23.9132 15.5294 23.9132Z" fill="#F4CA16" fill-opacity="0.5"/>
<path d="M13.1765 24.8023C13.6963 24.8023 14.1177 24.3157 14.1177 23.7154C14.1177 23.1151 13.6963 22.6284 13.1765 22.6284C12.6567 22.6284 12.2354 23.1151 12.2354 23.7154C12.2354 24.3157 12.6567 24.8023 13.1765 24.8023Z" fill="#F4CA16" fill-opacity="0.5"/>
<path d="M18.9661 8.85846C19.1802 9.60313 19.2907 10.3797 19.2939 11.1613C19.2939 15.4855 16.1336 18.9911 12.2351 18.9911C8.3366 18.9911 5.17627 15.4855 5.17627 11.1613C5.17627 6.83704 8.3366 3.33154 12.2351 3.33154C12.9398 3.33508 13.6398 3.4577 14.3112 3.6952" stroke="#0373F3" stroke-width="2" stroke-linecap="round" stroke-linejoin="round"/>
<path d="M19.8545 4.20117L17.67 6.68682L16.269 5.09266" stroke="#0373F3" stroke-width="2" stroke-linecap="round" stroke-linejoin="round"/>
<path d="M8.81006 10.0524C8.81006 9.34415 9.32766 8.77002 9.96611 8.77002C10.6046 8.77002 11.1222 9.34415 11.1222 10.0524C11.1222 11.6549 8.81006 11.6549 8.81006 13.5531H11.1222" stroke="#0373F3" stroke-width="2" stroke-linecap="round" stroke-linejoin="round"/>
<path d="M15.0055 13.5535V9.21417C15.0063 9.01634 14.8887 8.84199 14.7174 8.78699C14.5461 8.73205 14.3628 8.80982 14.2682 8.97753C13.7765 9.85965 13.24 10.861 12.7765 11.7457C12.6993 11.8938 12.6995 12.0763 12.7769 12.2242C12.8544 12.372 12.9972 12.4626 13.1514 12.4617H15.6604" stroke="#0373F3" stroke-width="2" stroke-linecap="round" stroke-linejoin="round"/>
</g>
<defs>
<clipPath id="clip0_106_608">
<rect width="24" height="25" fill="white"/>
</clipPath>
</defs>
</svg>
