<svg width="25" height="26" viewBox="0 0 25 26" fill="none" xmlns="http://www.w3.org/2000/svg">
<g clip-path="url(#clip0_106_599)">
<path d="M8.92837 15.1069C14.5407 14.1258 13.2729 27.0365 16.8365 25.7547C21.7933 23.9719 24.2345 20.1132 24.7447 15.2075L24.7378 15.0409C24.4893 9.06178 24.4579 8.30538 21.0154 4.5896C17.8371 1.91563 15.5469 -0.115518 11.3543 0.00510507C5.69775 0.16785 1.43123 3.75429 0.31315 9.17408C-0.772823 14.4383 3.52026 16.0523 8.92837 15.1069Z" fill="#F4CA16" fill-opacity="0.5"/>
<path d="M19.3055 8.92522L20.8033 7.42735L19.4483 6.07227L17.8114 7.70814C16.8052 7.10439 15.6322 6.74981 14.3748 6.74981C10.6766 6.74981 7.6665 9.75897 7.6665 13.4581C7.6665 17.1573 10.6766 20.1665 14.3748 20.1665C18.073 20.1665 21.0832 17.1573 21.0832 13.4581C21.0824 11.7772 20.4476 10.1585 19.3055 8.92522ZM14.3748 18.2498C11.7327 18.2498 9.58317 16.1003 9.58317 13.4581C9.58317 10.816 11.7327 8.66647 14.3748 8.66647C17.017 8.66647 19.1665 10.816 19.1665 13.4581C19.1665 16.1003 17.017 18.2498 14.3748 18.2498Z" fill="#0373F3"/>
<path d="M13.4165 10.5833H15.3332V14.4167H13.4165V10.5833ZM12.4582 3.875H16.2915V5.79167H12.4582V3.875ZM2.87484 8.66667H6.70817V10.5833H2.87484V8.66667ZM2.87484 16.3333H6.70817V18.25H2.87484V16.3333ZM1.9165 12.5H5.74025V14.4167H1.9165V12.5Z" fill="#0373F3"/>
</g>
<defs>
<clipPath id="clip0_106_599">
<rect width="25" height="26" fill="white"/>
</clipPath>
</defs>
</svg>
