<svg width="25" height="26" viewBox="0 0 25 26" fill="none" xmlns="http://www.w3.org/2000/svg">
<g clip-path="url(#clip0_106_599)">
<path d="M8.92837 15.1069C14.5407 14.1258 13.2729 27.0365 16.8365 25.7547C21.7933 23.9719 24.2345 20.1132 24.7447 15.2075L24.7378 15.0409C24.4893 9.06178 24.4579 8.30538 21.0154 4.5896C17.8371 1.91563 15.5469 -0.115518 11.3543 0.00510507C5.69775 0.16785 1.43123 3.75429 0.31315 9.17408C-0.772823 14.4383 3.52026 16.0523 8.92837 15.1069Z" fill="#F4CA16" fill-opacity="0.5"/>
<path d="M19.1088 9.20248L20.281 8.03023L19.2205 6.96973L17.9395 8.24998C17.152 7.77748 16.234 7.49998 15.25 7.49998C12.3558 7.49998 10 9.85498 10 12.75C10 15.645 12.3558 18 15.25 18C18.1442 18 20.5 15.645 20.5 12.75C20.4994 11.4345 20.0026 10.1677 19.1088 9.20248ZM15.25 16.5C13.1823 16.5 11.5 14.8177 11.5 12.75C11.5 10.6822 13.1823 8.99998 15.25 8.99998C17.3177 8.99998 19 10.6822 19 12.75C19 14.8177 17.3177 16.5 15.25 16.5Z" fill="#0373F3"/>
<path d="M14.5 10.5H16V13.5H14.5V10.5ZM13.75 5.25H16.75V6.75H13.75V5.25ZM6.25 9H9.25V10.5H6.25V9ZM6.25 15H9.25V16.5H6.25V15ZM5.5 12H8.4925V13.5H5.5V12Z" fill="#0373F3"/>
</g>
<defs>
<clipPath id="clip0_106_599">
<rect width="25" height="26" fill="white"/>
</clipPath>
</defs>
</svg>
