<svg width="24" height="25" viewBox="0 0 24 25" fill="none" xmlns="http://www.w3.org/2000/svg">
<g clip-path="url(#clip0_106_617)">
<path d="M12.4708 19C11.1125 18.1295 9.46657 18.4381 8.47081 19.75C6.96111 21.7391 11.1536 25.9592 12.9414 24.25C14.3823 22.8725 14.1306 20.0638 12.4708 19Z" fill="#F4CA16" fill-opacity="0.5"/>
<path d="M4.54545 21.4846C8.75812 21.8709 8.2263 14.8569 12.2013 13.3199C16.0191 11.8436 18.1285 18.324 22.5738 14.11C27.0192 9.896 20.1675 2.0293 14.424 0.414316C8.75134 -1.18075 3.1864 1.94639 1.08796 7.78895C-0.769836 12.9614 -0.629201 21.0101 4.54545 21.4846Z" fill="#F4CA16" fill-opacity="0.5"/>
<path d="M9.52393 12L11.1672 13.9047L14.4539 10.0952" stroke="#0373F3" stroke-width="2" stroke-linecap="round" stroke-linejoin="round"/>
<path fill-rule="evenodd" clip-rule="evenodd" d="M5.09766 10.9725C5.09766 14.6605 7.25234 17.961 10.5034 19.253L10.527 19.2624C11.325 19.5795 12.2041 19.5792 13.002 19.2615L13.0211 19.2539C16.275 17.9582 18.431 14.6535 18.431 10.9614V7.85855C18.431 7.12945 17.985 6.485 17.33 6.26765L12.232 4.5758C11.9275 4.47473 11.6012 4.47473 11.2967 4.5758L6.19864 6.2676C5.54363 6.48495 5.09766 7.1294 5.09766 7.8585V10.9725Z" stroke="#0373F3" stroke-width="2" stroke-linecap="round" stroke-linejoin="round"/>
</g>
<defs>
<clipPath id="clip0_106_617">
<rect width="24" height="25" fill="white"/>
</clipPath>
</defs>
</svg>
